<svg xmlns="http://www.w3.org/2000/svg" width="500" height="500" style="width:100%;height:100%;content-visibility:visible"><defs><clipPath id="a"><path d="M0 0h500v500H0z"/></clipPath></defs><g clip-path="url(#a)"><g display="block"><path stroke-linecap="round" stroke-linejoin="round" stroke="#E8392F" stroke-width="12.04" d="M94.667 344.589a38.424 38.424 0 01-8.182-23.764 38.424 38.424 0 018.182-23.764M78.674 356.468a57.655 57.655 0 01-12.266-35.643 57.655 57.655 0 0112.266-35.643" fill="none"/></g><g display="block"><path stroke-linecap="round" stroke-linejoin="round" stroke="#E8392F" stroke-width="12.04" d="M406.284 344.589a38.424 38.424 0 008.182-23.764 38.424 38.424 0 00-8.182-23.764M422.277 356.468a57.655 57.655 0 0012.266-35.643 57.655 57.655 0 00-12.266-35.643" fill="none"/></g><g display="block"><path stroke-linecap="round" stroke-linejoin="round" stroke="#5C0E09" stroke-width="12.04" d="M342.042 239.074H157.958c-6.6 0-12-5.4-12-12V101.94c0-6.6 5.4-12 12-12h184.084c6.6 0 12 5.4 12 12v125.134c0 6.6-5.4 12-12 12z" fill="none"/><path stroke-linecap="round" stroke-linejoin="round" stroke="#5C0E09" stroke-width="12.04" d="M333.907 206.158H166.093V109.5h167.814v96.658zM238.052 239.074h23.896s6.825 20.166 15.146 24.27h-54.188c8.321-4.104 15.146-24.27 15.146-24.27z" fill="none"/></g><g display="block"><path stroke-linecap="round" stroke-linejoin="round" stroke="#E8392F" stroke-width="12.04" d="M158.283 364.241h.104" fill="none"/><path stroke-linecap="round" stroke-linejoin="round" stroke="#5C0E09" stroke-width="12.04" d="M180.315 265.626h-44.118c-7.275 0-13.173 5.898-13.173 13.173v92.052c0 7.275 5.898 13.173 13.173 13.173h44.118c7.275 0 13.173-5.898 13.173-13.173v-92.052c0-7.275-5.898-13.173-13.173-13.173zM193.488 344.912h-70.464M169.559 384.024l6.939 24.974h-36.484l6.939-24.974" fill="none"/></g><g display="block"><path stroke-linecap="round" stroke-linejoin="round" stroke="#E8392F" stroke-width="12.04" d="M342.18 364.241h.104" fill="none"/><path stroke-linecap="round" stroke-linejoin="round" stroke="#5C0E09" stroke-width="12.04" d="M363.479 265.626h-42.494c-7.724 0-13.985 6.261-13.985 13.985v90.428c0 7.724 6.261 13.985 13.985 13.985h42.494c7.724 0 13.985-6.261 13.985-13.985v-90.428c0-7.724-6.261-13.985-13.985-13.985zM377.464 344.912H307M353.535 384.024l6.939 24.974H323.99l6.939-24.974" fill="none"/></g></g></svg>