<svg xmlns="http://www.w3.org/2000/svg" width="500" height="500" style="width:100%;height:100%;content-visibility:visible"><defs><clipPath id="a"><path d="M0 0h500v500H0z"/></clipPath></defs><g clip-path="url(#a)"><path stroke-linecap="round" stroke-linejoin="round" stroke="#5C0E09" stroke-width="12.04" d="M340.09 276.229l21.643 43.853 48.394 7.032-35.019 34.134 8.267 48.199-43.285-22.756-43.285 22.756 8.267-48.199-35.019-34.134 48.394-7.032 21.643-43.853z" fill="none" display="block"/><path stroke-linecap="round" stroke-linejoin="round" stroke="#E8392F" stroke-width="12.04" d="M341.903 155.697l22.387 12.243-22.387 12.243-12.243 22.387-12.243-22.387-22.387-12.243 22.387-12.243 12.243-22.387 12.243 22.387zM182.525 314.873l22.387 12.243-22.387 12.243-12.243 22.387-12.243-22.387-22.387-12.243 22.387-12.243 12.243-22.387 12.243 22.387z" fill="none" display="block"/><g display="block"><path stroke-linecap="round" stroke-linejoin="round" stroke-dasharray="100 160" stroke-dashoffset="140" stroke="#E8392F" stroke-width="12.04" d="M228.595 306.523l-141.69-142.69" fill="none"/><path stroke-linecap="round" stroke-linejoin="round" stroke-dasharray="100 160" stroke-dashoffset="10" stroke="#5C0E09" stroke-width="12.04" d="M228.595 306.523l-141.69-142.69" fill="none"/></g><g display="block"><path stroke-linecap="round" stroke-linejoin="round" stroke-dasharray="100 160" stroke-dashoffset="184" stroke="#E8392F" stroke-width="12.04" d="M318.595 238.523l-141.69-142.69" fill="none"/><path stroke-linecap="round" stroke-linejoin="round" stroke-dasharray="100 160" stroke-dashoffset="54" stroke="#5C0E09" stroke-width="12.04" d="M318.595 238.523l-141.69-142.69" fill="none"/></g><path stroke-linecap="round" stroke-linejoin="round" stroke-dasharray="54 100" stroke-dashoffset="-81" stroke="#5C0E09" stroke-width="12.04" d="M299.028 457.657l-96.105-97.565" fill="none" display="block"/><path stroke-linecap="round" stroke-linejoin="round" stroke-dasharray="178 26" stroke-dashoffset="-97" stroke="#5C0E09" stroke-width="12.04" d="M136.951 295.234L91.565 248.45" fill="none" display="block"/><path stroke-linecap="round" stroke-linejoin="round" stroke-dasharray="54 100" stroke-dashoffset="-81" stroke="#5C0E09" stroke-width="12.04" d="M459.028 299.657l-96.105-97.565" fill="none" display="block"/><path stroke-linecap="round" stroke-linejoin="round" stroke-dasharray="178 26" stroke-dashoffset="-55" stroke="#5C0E09" stroke-width="12.04" d="M296.951 137.234L251.565 90.45" fill="none" display="block"/><path stroke-linecap="round" stroke-linejoin="round" stroke-dasharray="339 30" stroke-dashoffset="254" stroke="#5C0E09" stroke-width="12.04" d="M90.588 88.794l203.775 204.317" fill="none" display="block"/></g></svg>