<svg xmlns="http://www.w3.org/2000/svg" width="500" height="500" style="width:100%;height:100%;content-visibility:visible"><defs><clipPath id="a"><path d="M0 0h500v500H0z"/></clipPath></defs><g clip-path="url(#a)"><path stroke-linecap="round" stroke-linejoin="round" stroke="#5C0E09" stroke-width="12.6" d="M323.251 414.448C300.868 424.442 276.078 430 250 430c0 0 0 0 0 0-57.105 0-108.036-26.654-141.021-68.184" fill="none" display="block"/><path stroke-linecap="round" stroke-linejoin="round" stroke="#5C0E09" stroke-width="12.6" d="M156.508 355.75h-53.042v52.875M176.749 85.552C199.132 75.558 223.922 70 250 70c0 0 0 0 0 0 57.105 0 108.036 26.654 141.021 68.184" fill="none" display="block"/><path stroke-linecap="round" stroke-linejoin="round" stroke="#5C0E09" stroke-width="12.6" d="M343.492 144.25h53.042V91.375" fill="none" display="block"/><path stroke-linecap="round" stroke-linejoin="round" stroke="#E8392F" stroke-width="12.6" d="M414.448 176.749C424.442 199.132 430 223.922 430 250c0 0 0 0 0 0 0 57.105-26.654 108.036-68.184 141.021" fill="none" display="block"/><path stroke-linecap="round" stroke-linejoin="round" stroke="#E8392F" stroke-width="12.6" d="M355.75 343.492v53.042h52.875M85.552 323.251C75.558 300.868 70 276.078 70 250c0 0 0 0 0 0 0-57.105 26.654-108.036 68.184-141.021" fill="none" display="block"/><path stroke-linecap="round" stroke-linejoin="round" stroke="#E8392F" stroke-width="12.6" d="M144.25 156.508v-53.042H91.375" fill="none" display="block"/></g></svg>