<svg xmlns="http://www.w3.org/2000/svg" width="500" height="500" style="width:100%;height:100%;content-visibility:visible"><defs><clipPath id="b"><path d="M0 0h500v500H0z"/></clipPath><filter id="a" filterUnits="objectBoundingBox" x="0%" y="0%" width="100%" height="100%"><feComponentTransfer in="SourceGraphic"><feFuncA type="table" tableValues="1.0 0.0"/></feComponentTransfer></filter><mask id="c"><g filter="url(#a)"><g display="block"><path fill="#121331" d="M-197.5 146.125S-196 185-192 188s93 104 93 104l279-70 11-75.5L.75 205.75l-198.25-59.625z" transform="matrix(.9 0 0 .9 250 250)"/><path fill-opacity="0" stroke="#08A88A" stroke-width="0" d="M72.25 381.512S73.6 416.5 77.2 419.2c3.6 2.7 83.7 93.6 83.7 93.6l251.1-63 9.9-67.95-171.225 53.325L72.25 381.512z"/></g></g></mask></defs><g clip-path="url(#b)"><path stroke-linecap="round" stroke-linejoin="round" stroke="#5C0E09" stroke-width="12.6" d="M84.006 161.406l.45 45L250 248.65l164.7-43.2.45-44.1m.03 0L249.55 118.6 83.92 161.35l165.63 42.75 165.63-42.75z" fill="none" display="block"/><path stroke-linecap="round" stroke-linejoin="round" stroke="#5C0E09" stroke-width="12.6" d="M392.762 212.2L250.45 247.3l-143.944-33.244.377 80.226.418 88.974L250.369 426.4l142.41-44.1-.01-87.304-.007-82.796zm-142.537 34.48l.067 68.407.108 111.032" fill="none" display="block"/><g mask="url(#c)" display="block"><path stroke-linecap="round" stroke-linejoin="round" stroke="#E8392F" stroke-width="12.6" d="M171.032 418.75l.236-106.17.185-83.055-13.376-3.825.123-42.3 91.8-29.974m78.83 265.324l-.313-111.596-.22-78.529 13.38-4.275.123-40.95-91.8-29.876" fill="none"/></g><path stroke-linecap="round" stroke="#E8392F" stroke-width="12.6" d="M250.431 151.77C36.7 122.188 205.32-27.202 252.65 153.99M252.725 151.77c211.074-29.582 44.552-178.972-2.19 2.219" fill="none" display="block"/></g></svg>