<svg xmlns="http://www.w3.org/2000/svg" width="500" height="500" style="width:100%;height:100%;content-visibility:visible"><defs><clipPath id="a"><path d="M0 0h500v500H0z"/></clipPath></defs><g clip-path="url(#a)"><path stroke-linecap="round" stroke-linejoin="round" stroke="#5C0E09" stroke-width="11.76" d="M174.88 186.928v190.467c0 14.756-11.96 26.718-26.716 26.718 0 0 0 0 0 0-14.756 0-26.716-11.962-26.716-26.718v-16.157c0-14.755 11.96-26.715 26.716-26.715 0 0 0 0 0 0 14.756 0 26.716 11.96 26.716 26.715v2.394M325.453 116.928v190.467c0 14.756-11.96 26.718-26.716 26.718 0 0 0 0 0 0-14.756 0-26.715-11.962-26.715-26.718v-16.157c0-14.755 11.96-26.715 26.715-26.715 0 0 0 0 0 0 14.757 0 26.716 11.96 26.716 26.715v2.394" fill="none" display="block"/><path stroke-linecap="round" stroke-linejoin="round" stroke="#E8392F" stroke-width="12.25" d="M325.324 168.976l-150.588 71.649v-82.642l150.588-71.649v82.642z" fill="none" display="block"/></g></svg>